#!OML:ASF I:\Actors\actors\Patient Classification 2\Patient 1\Session 1\actor1.ASF
:FULLY-SPECIFIED
:DEGREES
186
root -0.72492 18.7604 6.62675 4.83394 3.84352 -1.18087
lowerback 22.8404 -0.524946 2.71764
upperback -1.5644 0.249194 1.28968
thorax -14.7069 -0.0329706 -0.16719
lowerneck -10.1958 -2.46858 -4.78016
upperneck 12.1803 -3.06737 3.52004
head 5.47499 -1.4685 1.64649
rclavicle -3.97569e-015 1.98785e-015
rhumerus -32.8749 -26.0107 8.84275
rradius 57.7289
rwrist 8.4896
rhand -19.131 -38.2673
rfingers 7.12502
rthumb 7.17868 -68.1256
lclavicle -3.97569e-015 1.98785e-015
lhumerus -11.6049 42.1562 -1.07369
lradius 48.9391
lwrist -1.52795
lhand -10.3974 -15.8171
lfingers 7.12502
lthumb 15.6009 13.5738
rfemur 7.37754 -2.44648 15.2283
rtibia -3.18055e-015
rfoot -19.1244 -11.8656
rtoes -4.71093
lfemur -7.73057 -5.29995 -12.0852
ltibia 22.0699
lfoot -19.2238 6.2602
ltoes -56.761
187
root -0.723197 18.77 6.60921 5.291 3.75071 -1.1476
lowerback 22.6191 -0.551729 3.01668
upperback -1.46076 0.30948 1.4668
thorax -14.4545 -0.0167051 -0.1591
lowerneck -10.168 -2.41446 -4.61135
upperneck 11.424 -2.94505 3.06791
head 5.2205 -1.43128 1.4877
rclavicle 4.87022e-015 -1.43125e-014
rhumerus -33.7172 -26.8935 7.39229
rradius 57.1077
rwrist 11.7272
rhand -28.3051 -40.7228
rfingers 7.12502
rthumb -1.68061 -70.6959
lclavicle 4.87022e-015 -1.43125e-014
lhumerus -14.2107 42.1544 -0.0424458
lradius 49.9895
lwrist -1.20944
lhand -19.9047 -22.9216
lfingers 7.12502
lthumb 6.43183 6.96071
rfemur 6.79108 -2.39541 15.2053
rtibia 1.11319e-014
rfoot -18.988 -11.9913
rtoes -4.99079
lfemur -8.26994 -5.04058 -12.0817
ltibia 22.0413
lfoot -19.0963 6.19134
ltoes -56.8129
188
root -0.718385 18.7785 6.58929 5.71297 3.65149 -1.1
lowerback 22.5181 -0.571057 3.34157
upperback -1.37834 0.392509 1.65695
thorax -14.2972 0.00797951 -0.157933
lowerneck -10.3149 -2.40533 -4.42289
upperneck 10.8269 -2.87531 2.52632
head 5.04665 -1.42239 1.29295
rclavicle -8.44835e-015 3.57812e-015
rhumerus -34.3377 -28.0901 5.9132
rradius 56.0106
rwrist 15.3768
rhand -35.0405 -45.8664
rfingers 7.12502
rthumb -8.18388 -75.6879
lclavicle -8.44835e-015 3.57812e-015
lhumerus -17.0691 41.9809 1.29955
lradius 51.3105
lwrist 0.000352758
lhand -26.5168 -31.4917
lfingers 7.12502
lthumb 0.0466036 -1.51198
rfemur 6.23522 -2.33655 15.1505
rtibia -6.36111e-015
rfoot -18.8794 -12.104
rtoes -5.21552
lfemur -8.7871 -4.82401 -12.1119
ltibia 22.03
lfoot -18.9923 6.13817
ltoes -56.8846
189
root -0.711797 18.7869 6.56977 6.13751 3.51531 -1.01382
lowerback 22.4666 -0.583893 3.6245
upperback -1.34124 0.477706 1.86179
thorax -14.2226 0.0367201 -0.115757
lowerneck -10.4501 -2.34333 -4.08581
upperneck 10.2804 -2.745 1.83127
head 4.88105 -1.38716 1.03212
rclavicle 6.16232e-015 -7.95139e-015
rhumerus -35.3177 -29.6648 4.28133
rradius 55.6481
rwrist 18.5623
rhand -39.1504 -50.7726
rfingers 7.12502
rthumb -12.1487 -80.3999
lclavicle 6.16232e-015 -7.95139e-015
lhumerus -20.2765 41.4365 2.88442
lradius 53.0283
lwrist 1.67536
lhand -29.7516 -38.9448
lfingers 7.12502
lthumb -3.07755 -8.98727
rfemur 5.67341 -2.24606 15.0461
rtibia 4.77083e-015
rfoot -18.8005 -12.2362
rtoes -5.34729
lfemur -9.28649 -4.6163 -12.1947
ltibia 22.0213
lfoot -18.9204 6.03967
ltoes -56.8596
190
root -0.705157 18.7953 6.55169 6.54264 3.33984 -0.905284
lowerback 22.4402 -0.582027 3.89136
upperback -1.33146 0.577828 2.05214
thorax -14.1944 0.0720049 -0.0853414
lowerneck -10.6619 -2.24878 -3.60009
upperneck 9.85874 -2.57758 0.966232
head 4.76319 -1.33851 0.697232
rclavicle 1.19271e-015 -3.73715e-014
rhumerus -36.8886 -31.604 2.38333
rradius 56.337
rwrist 20.7114
rhand -41.223 -52.3373
rfingers 7.12502
rthumb -14.1466 -81.8357
lclavicle 1.19271e-015 -3.73715e-014
lhumerus -23.6197 40.9507 4.89406
lradius 54.9536
lwrist 2.70008
lhand -31.5427 -44.4635
lfingers 7.12502
lthumb -4.80722 -14.538
rfemur 5.13043 -2.11919 14.917
rtibia 1.59028e-015
rfoot -18.7285 -12.4033
rtoes -5.52382
lfemur -9.7393 -4.36987 -12.3126
ltibia 21.9969
lfoot -18.824 5.95561
ltoes -56.8151
191
root -0.69733 18.8018 6.53568 6.90296 3.14489 -0.773729
lowerback 22.4256 -0.576576 4.18928
upperback -1.31914 0.686721 2.20983
thorax -14.1689 0.107212 -0.11276
lowerneck -11.1299 -2.21741 -3.50772
upperneck 9.72406 -2.46726 0.429453
head 4.789 -1.3132 0.519926
rclavicle 3.37934e-015 -4.77083e-015
rhumerus -38.8134 -33.4544 0.101376
rradius 57.5597
rwrist 21.8672
rhand -41.6437 -50.5461
rfingers 7.12502
rthumb -14.5519 -80.0157
lclavicle 3.37934e-015 -4.77083e-015
lhumerus -26.8447 41.0156 7.41738
lradius 56.6836
lwrist 2.64675
lhand -31.8799 -47.719
lfingers 7.12502
lthumb -5.13276 -17.8012
rfemur 4.64397 -1.9736 14.7515
rtibia -3.33958e-014
rfoot -18.6828 -12.5228
rtoes -5.48742
lfemur -10.126 -4.13228 -12.4656
ltibia 21.9545
lfoot -18.7322 5.88823
ltoes -56.7098
192
root -0.690022 18.806 6.52322 7.25512 2.96792 -0.611023
lowerback 22.3392 -0.58355 4.4869
upperback -1.30143 0.771369 2.35106
thorax -14.0955 0.131507 -0.150871
lowerneck -11.6299 -2.20407 -3.49037
upperneck 9.65345 -2.37889 -0.0140131
head 4.84298 -1.29686 0.381328
rclavicle 2.5842e-015 3.81667e-014
rhumerus -40.6448 -34.9049 -2.70911
rradius 58.7527
rwrist 22.3951
rhand -40.3893 -48.6547
rfingers 7.12502
rthumb -13.3431 -78.2075
lclavicle 2.5842e-015 3.81667e-014
lhumerus -29.828 41.3898 10.381
lradius 57.9755
lwrist 2.11186
lhand -31.5653 -49.5337
lfingers 7.12502
lthumb -4.82897 -19.6087
rfemur 4.1862 -1.85101 14.5491
rtibia -3.18055e-015
rfoot -18.6845 -12.6032
rtoes -5.27594
lfemur -10.4912 -3.93545 -12.6468
ltibia 21.906
lfoot -18.6735 5.78086
ltoes -56.5335
193
root -0.687518 18.8085 6.51468 7.60758 2.80522 -0.430726
lowerback 22.1641 -0.581092 4.74701
upperback -1.30911 0.84765 2.45756
thorax -14.0004 0.153395 -0.204168
lowerneck -12.0666 -2.16341 -3.25184
upperneck 9.58259 -2.2781 -0.588859
head 4.88225 -1.2759 0.167929
rclavicle -1.53064e-014 1.59028e-014
rhumerus -42.0556 -36.0498 -5.95155
rradius 59.2662
rwrist 22.7095
rhand -38.0399 -48.3919
rfingers 7.12502
rthumb -11.0777 -78.0796
lclavicle -1.53064e-014 1.59028e-014
lhumerus -32.3599 41.6107 13.7498
lradius 58.773
lwrist 1.79549
lhand -31.027 -50.1222
lfingers 7.12502
lthumb -4.3092 -20.186
rfemur 3.74703 -1.74727 14.3416
rtibia 4.77083e-015
rfoot -18.6941 -12.667
rtoes -5.06913
lfemur -10.8516 -3.65242 -12.8346
ltibia 21.8645
lfoot -18.5947 5.62619
ltoes -56.5057
194
root -0.687627 18.8092 6.50954 7.89235 2.65894 -0.278327
lowerback 22.0087 -0.597024 5.00453
upperback -1.35922 0.897947 2.53874
thorax -13.967 0.161075 -0.274894
lowerneck -12.5269 -2.09791 -2.98415
upperneck 9.67031 -2.15183 -1.12746
head 4.97535 -1.24198 -0.0382556
rclavicle 3.97569e-015 2.3059e-014
rhumerus -42.9757 -37.0442 -9.57786
rradius 59.0537
rwrist 22.6203
rhand -35.7235 -49.3693
rfingers 7.12502
rthumb -8.84301 -79.164
lclavicle 3.97569e-015 2.3059e-014
lhumerus -34.5819 41.8221 17.3095
lradius 59.1705
lwrist 1.6134
lhand -30.3917 -49.6616
lfingers 7.12502
lthumb -3.69576 -19.7139
rfemur 3.39999 -1.6515 14.1742
rtibia -9.54166e-015
rfoot -18.6916 -12.6851
rtoes -4.97038
lfemur -11.1526 -3.32367 -12.9927
ltibia 21.8397
lfoot -18.4703 5.45735
ltoes -56.619
195
root -0.685672 18.81 6.50686 8.0559 2.53916 -0.172887
lowerback 21.9383 -0.670833 5.27138
upperback -1.41673 0.881658 2.62886
thorax -13.9946 0.137099 -0.317687
lowerneck -13.0867 -1.98805 -2.66247
upperneck 9.93097 -1.96412 -1.70929
head 5.1388 -1.183 -0.264161
rclavicle 1.19271e-014 -1.27222e-014
rhumerus -43.5054 -38.0114 -13.5456
rradius 58.4137
rwrist 22.2265
rhand -33.8405 -50.67
rfingers 7.12502
rthumb -7.02557 -80.5334
lclavicle 1.19271e-014 -1.27222e-014
lhumerus -36.7808 42.311 20.8223
lradius 59.3292
lwrist 1.26577
lhand -29.7838 -48.8883
lfingers 7.12502
lthumb -3.10868 -18.9312
rfemur 3.19807 -1.56448 14.0552
rtibia 3.18055e-015
rfoot -18.673 -12.7398
rtoes -5.45814
lfemur -11.3331 -3.08395 -13.1127
ltibia 21.8352
lfoot -18.3814 5.31782
ltoes -56.6331
196
root -0.683469 18.8114 6.5071 8.2055 2.35927 -0.0749284
lowerback 21.7983 -0.738048 5.48298
upperback -1.46035 0.850349 2.70291
thorax -13.9663 0.110795 -0.342976
lowerneck -13.7811 -1.86289 -2.33852
upperneck 10.2922 -1.74691 -2.30867
head 5.35816 -1.11512 -0.496006
rclavicle -5.1684e-015 -1.59028e-014
rhumerus -43.9829 -38.9413 -17.5137
rradius 57.5646
rwrist 22.2946
rhand -32.1748 -50.8488
rfingers 7.12502
rthumb -5.41752 -80.7596
lclavicle -5.1684e-015 -1.59028e-014
lhumerus -38.9956 43.4453 24.2353
lradius 59.3237
lwrist 0.376303
lhand -29.1402 -48.2758
lfingers 7.12502
lthumb -2.48706 -18.3106
rfemur 3.0026 -1.41645 13.9379
rtibia -6.36111e-015
rfoot -18.6611 -12.8555
rtoes -6.23778
lfemur -11.4773 -2.84013 -13.2395
ltibia 21.8478
lfoot -18.3467 5.23872
ltoes -56.5761
197
root -0.682931 18.8108 6.51102 8.3108 2.1725 0.06157
lowerback 21.6402 -0.790574 5.65887
upperback -1.51068 0.821432 2.73496
thorax -13.9347 0.0860618 -0.396645
lowerneck -14.4634 -1.77963 -2.07057
upperneck 10.6448 -1.57225 -2.92726
head 5.57594 -1.0745 -0.728954
rclavicle -5.96354e-015 -3.81667e-014
rhumerus -44.5686 -39.7421 -21.2669
rradius 56.8355
rwrist 22.5855
rhand -30.4293 -49.8505
rfingers 7.12502
rthumb -3.73203 -79.7975
lclavicle -5.96354e-015 -3.81667e-014
lhumerus -41.1055 44.446 27.7173
lradius 59.3277
lwrist -0.447627
lhand -28.5774 -47.5154
lfingers 7.12502
lthumb -1.94356 -17.5445
rfemur 2.86835 -1.26293 13.7778
rtibia 9.54166e-015
rfoot -18.6933 -12.9321
rtoes -6.61475
lfemur -11.5616 -2.61583 -13.4138
ltibia 21.8781
lfoot -18.3215 5.20981
ltoes -56.6372
198
root -0.683595 18.8087 6.51718 8.28505 2.10219 0.200874
lowerback 21.5901 -0.873803 5.9031
upperback -1.56866 0.771663 2.71392
thorax -13.9748 0.0423555 -0.541712
lowerneck -15.0855 -1.74355 -1.86423
upperneck 10.9424 -1.46232 -3.46093
head 5.76911 -1.06297 -0.930762
rclavicle -1.98785e-015 -3.18055e-015
rhumerus -45.1437 -40.1869 -24.99
rradius 55.4562
rwrist 22.1232
rhand -28.9044 -48.6685
rfingers 7.12502
rthumb -2.2594 -78.6363
lclavicle -1.98785e-015 -3.18055e-015
lhumerus -42.7962 44.5779 31.5084
lradius 59.3262
lwrist -0.674884
lhand -28.2472 -46.2738
lfingers 7.12502
lthumb -1.62464 -16.3002
rfemur 2.91959 -1.21036 13.625
rtibia 0
rfoot -18.7956 -12.928
rtoes -6.67223
lfemur -11.5155 -2.50829 -13.5751
ltibia 21.9121
lfoot -18.2803 5.19965
ltoes -56.8057
199
root -0.687207 18.8067 6.52475 8.22027 2.06305 0.24818
lowerback 21.5412 -0.945348 6.16437
upperback -1.63839 0.739699 2.67253
thorax -14.0286 0.00369327 -0.725164
lowerneck -15.6944 -1.72132 -1.68536
upperneck 11.2907 -1.38776 -3.81944
head 5.97827 -1.05863 -1.07714
rclavicle 2.78299e-015 3.18055e-015
rhumerus -45.727 -40.6373 -28.6269
rradius 54.243
rwrist 21.0548
rhand -27.2344 -48.6539
rfingers 7.12502
rthumb -0.646455 -78.6326
lclavicle 2.78299e-015 3.18055e-015
lhumerus -44.2919 45.3636 35.0653
lradius 58.9522
lwrist -1.64539
lhand -27.57 -44.6129
lfingers 7.12502
lthumb -0.97058 -14.6354
rfemur 3.02211 -1.17071 13.5871
rtibia 1.43125e-014
rfoot -18.9244 -12.8799
rtoes -6.63243
lfemur -11.4218 -2.43968 -13.6149
ltibia 21.9286
lfoot -18.2137 5.20599
ltoes -56.9109
200
root -0.693877 18.8049 6.53475 8.13163 1.98185 0.270912
lowerback 21.4659 -0.967243 6.26458
upperback -1.72529 0.731919 2.64608
thorax -14.0873 -0.0115171 -0.808044
lowerneck -16.2906 -1.70178 -1.50842
upperneck 11.7776 -1.32212 -4.10476
head 6.231 -1.0562 -1.2029
rclavicle 3.57812e-015 6.36111e-015
rhumerus -46.2704 -41.0358 -32.031
rradius 52.9923
rwrist 19.7855
rhand -25.452 -48.9502
rfingers 7.12502
rthumb 1.07502 -78.9273
lclavicle 3.57812e-015 6.36111e-015
lhumerus -45.7992 46.8569 38.152
lradius 58.1735
lwrist -3.25672
lhand -26.3139 -42.3981
lfingers 7.12502
lthumb 0.242574 -12.4185
rfemur 3.14416 -1.08329 13.5803
rtibia 2.06736e-014
rfoot -18.9958 -12.8385
rtoes -6.58083
lfemur -11.281 -2.40233 -13.6264
ltibia 21.9409
lfoot -18.1988 5.24597
ltoes -56.913
